<?xml version="1.0" encoding="UTF-8" standalone="no"?>
<svg
   version="1.1"
   id="news"
   x="0px"
   y="0px"
   viewBox="0 0 128 128"
   style="enable-background:new 0 0 128 128;"
   xml:space="preserve"
   sodipodi:docname="logo_primary.svg"
   inkscape:version="1.2.2 (732a01da63, 2022-12-09)"
   xmlns:inkscape="http://www.inkscape.org/namespaces/inkscape"
   xmlns:sodipodi="http://sodipodi.sourceforge.net/DTD/sodipodi-0.dtd"
   xmlns="http://www.w3.org/2000/svg"
   xmlns:svg="http://www.w3.org/2000/svg"
   xmlns:rdf="http://www.w3.org/1999/02/22-rdf-syntax-ns#"
   xmlns:cc="http://creativecommons.org/ns#"
   xmlns:dc="http://purl.org/dc/elements/1.1/"><metadata
   id="metadata11"><rdf:RDF><cc:Work
       rdf:about=""><dc:format>image/svg+xml</dc:format><dc:type
         rdf:resource="http://purl.org/dc/dcmitype/StillImage" /><dc:title /></cc:Work></rdf:RDF></metadata><defs
   id="defs9" /><sodipodi:namedview
   pagecolor="#ffffff"
   bordercolor="#666666"
   borderopacity="1"
   objecttolerance="10"
   gridtolerance="10"
   guidetolerance="10"
   inkscape:pageopacity="0"
   inkscape:pageshadow="2"
   inkscape:window-width="1920"
   inkscape:window-height="991"
   id="namedview7"
   showgrid="false"
   showguides="true"
   inkscape:guide-bbox="true"
   inkscape:zoom="2.8284271"
   inkscape:cx="48.790368"
   inkscape:cy="44.017397"
   inkscape:window-x="-9"
   inkscape:window-y="-9"
   inkscape:window-maximized="1"
   inkscape:current-layer="layer3"
   inkscape:document-rotation="0"
   inkscape:showpageshadow="2"
   inkscape:pagecheckerboard="0"
   inkscape:deskcolor="#d1d1d1"><inkscape:grid
     type="xygrid"
     id="grid859" /></sodipodi:namedview>
<g
   id="g885"
   style="display:inline;fill:#cc0004;fill-opacity:1"
   inkscape:label="pin"><path
     id="path1064"
     style="display:inline;fill:#cc0004;fill-opacity:1;stroke-width:1.42001"
     d="m 12.925972,80.53424 c 2.429546,9.299138 4.693469,18.641113 7.190522,27.92269 9.022401,2.59626 18.337842,4.00652 27.351964,6.63471 C 31.734536,119.71566 15.838747,123.75701 0,128 4.4037285,111.44263 8.9841887,94.499029 12.891856,80.531602 c 0.0117,8.02e-4 0.02376,0.0018 0.03412,0.0026 z"
     sodipodi:nodetypes="cccccc" /></g><g
   inkscape:groupmode="layer"
   id="layer3"
   inkscape:label="center"
   style="display:inline"><path
     style="fill:#cc0004;stroke-width:0.196476;fill-opacity:1"
     d="M 69.370302,84.79773 C 76.270964,83.928676 82.76178,80.012425 86.737113,74.319405 91.256857,67.846717 92.18253,59.03496 89.13824,51.462336 87.914612,48.418599 86.588249,46.501482 83.725419,43.638639 79.967559,39.880792 76.725608,38.05561 71.76841,36.906995 69.005467,36.266794 64.706227,36.188393 61.964287,36.728198 50.08215,39.067435 41.482609,49.811274 42.046337,61.612701 c 0.296736,6.212304 2.683337,11.59199 7.103465,16.012118 3.551854,3.551853 8.058221,5.953249 12.892588,6.870305 2.005921,0.380524 5.54781,0.526781 7.327912,0.302606 z"
     id="path780" /><path
     style="fill:#f5a200;stroke-width:0.196476;fill-opacity:1"
     d="m 74.243119,29.635998 c 0.165347,-0.189113 0.537565,-1.404806 0.827162,-2.70155 1.940628,-8.689705 2.135185,-9.789439 2.033372,-11.493893 -0.102324,-1.713874 -0.365857,-2.293645 -2.155098,-4.742149 -1.62201,-2.2196808 -5.946362,-8.0118489 -6.90062,-9.2429313 -1.192138,-1.53794052 -2.239663,-1.69540794 -3.29185,-0.4948658 -1.102173,1.2575845 -8.490699,11.4587131 -8.922243,12.3186981 -0.632109,1.259669 -0.749766,2.416915 -0.419923,4.130169 0.392599,2.039183 3.196642,12.188371 3.432651,12.424367 0.126133,0.126131 1.234995,0.0401 3.204962,-0.248722 3.386335,-0.496397 7.059688,-0.461775 10.183555,0.09595 0.91853,0.164001 1.678457,0.298311 1.688718,0.298452 0.01,1.56e-4 0.153952,-0.154448 0.319314,-0.343563 z"
     id="path828" /><path
     style="fill:#f5a200;stroke-width:0.196476;fill-opacity:1"
     d="m 93.988324,34.646159 c 6.773516,-8.01997 6.873256,-8.150269 7.138346,-9.325627 0.14492,-0.642541 -0.40066,-9.66976 -0.9154,-15.146357 -0.24213,-2.5760967 -1.04619,-2.9377147 -3.74954,-1.6863082 -1.933118,0.8948615 -6.542148,2.9513062 -9.490889,4.2346292 -4.452015,1.937553 -4.400499,1.852279 -7.848414,12.992109 -0.762294,2.462888 -1.385985,4.685007 -1.385985,4.938037 0,0.364907 0.224586,0.566393 1.085987,0.974241 0.597302,0.282806 1.135068,0.514195 1.195044,0.514195 0.05995,0 1.05223,0.542782 2.204998,1.206197 2.390738,1.375838 4.281296,2.75563 6.123713,4.469249 0.702403,0.653311 1.428488,1.190849 1.613534,1.194534 0.201245,0.0043 1.82001,-1.749871 4.028606,-4.364899 z"
     id="path822" /><path
     style="fill:#f5a200;stroke-width:0.196476;fill-opacity:1"
     d="m 99.741832,52.13804 c 12.630918,-3.359721 13.207318,-3.563432 14.911488,-5.269809 0.63458,-0.635411 5.49647,-10.20412 6.92263,-13.624441 0.8126,-1.948863 0.72395,-2.853178 -0.33496,-3.41702 -0.45403,-0.241763 -12.6326,-1.812852 -14.04716,-1.812157 -0.49403,1.97e-4 -1.33398,0.147504 -1.86652,0.327222 -1.13954,0.384576 -1.82043,1.054936 -7.034035,6.925492 -5.272331,5.93671 -5.807473,6.571256 -5.813936,6.894071 -0.0029,0.162088 0.352704,0.825192 0.790979,1.47357 0.993628,1.469913 2.695385,4.830754 3.432254,6.778441 0.581117,1.535998 0.98572,2.176795 1.350542,2.138912 0.118337,-0.01276 0.878252,-0.198708 1.688718,-0.414281 z"
     id="path810" /><path
     style="fill:#f5a200;stroke-width:0.196476;fill-opacity:1"
     d="m 115.02882,73.600251 c 0.35722,-0.0846 1.07402,-0.417697 1.59292,-0.740257 1.22826,-0.763527 10.44025,-8.316381 11.10101,-9.101635 0.30392,-0.361192 0.50822,-0.845259 0.50822,-1.204198 0,-0.780024 -0.6884,-1.440153 -5.21068,-4.996796 -5.08497,-3.999156 -5.36765,-4.204044 -6.54367,-4.742447 -1.5347,-0.702601 -1.51532,-0.705691 -13.39467,2.133626 -3.808766,0.910353 -4.139021,1.007404 -4.434837,1.303206 -0.224572,0.224587 -0.254022,0.821861 -0.155965,3.162742 0.130951,3.124888 -0.0557,5.277362 -0.757122,8.730847 -0.306728,1.510276 -0.368562,2.172274 -0.217047,2.323789 0.224586,0.224601 1.28661,0.462425 7.726211,1.730144 4.47106,0.880193 8.5785,1.605712 8.91603,1.574872 0.12103,-0.01134 0.5124,-0.08928 0.8696,-0.173893 z"
     id="path786" /><path
     style="fill:#f5a200;stroke-width:0.196476;fill-opacity:1"
     d="m 112.21812,97.082228 c 1.62093,-0.348323 3.30081,-0.731225 3.73307,-0.850912 0.43222,-0.119615 1.4932,-0.356733 2.3577,-0.526795 2.33754,-0.459843 3.16205,-0.809659 3.42936,-1.454962 0.39792,-0.960705 0.553,-0.620376 -4.87797,-10.705574 -2.85596,-5.303483 -3.2066,-5.575745 -8.96466,-6.96112 -12.695004,-3.054396 -12.041963,-2.967166 -12.649993,-1.689853 -0.149574,0.314212 -1.030759,1.72069 -1.958188,3.125497 -5.211945,7.894687 -13.339807,12.735489 -23.479683,13.984032 -1.776473,0.218749 -2.755731,0.422984 -2.819037,0.587963 -0.05329,0.139027 0.21811,0.620944 0.603268,1.070891 0.385144,0.449967 0.906384,1.357888 1.158295,2.017597 0.281445,0.737056 0.58826,1.224569 0.795854,1.264553 0.185812,0.03576 1.78757,-0.474053 3.55945,-1.13296 6.671568,-2.480944 9.895109,-3.41023 14.044619,-4.048801 6.711321,-1.032828 14.446835,0.960179 19.420195,5.003501 1.48198,1.204851 1.5088,1.206354 5.64772,0.316943 z"
     id="path768" /><path
     style="fill:#cc0004;stroke-width:0.196476;fill-opacity:1"
     d="m 113.69751,127.48102 c 0.39405,-0.49827 0.41678,-0.67787 0.29214,-2.30861 -0.27197,-3.55826 -1.36503,-8.5721 -2.59145,-11.88684 -0.84151,-2.27439 -2.7235,-5.92724 -3.94634,-7.65969 -1.27238,-1.8026 -4.19283,-4.74385 -5.83204,-5.873558 -2.484786,-1.712479 -5.225834,-2.866345 -8.007073,-3.370691 -1.955723,-0.354631 -5.477375,-0.264596 -7.875909,0.201381 -3.173994,0.616617 -5.839163,1.449294 -5.839163,1.824302 0,0.11154 0.41998,0.65786 0.933269,1.214096 0.513303,0.55622 1.655823,1.90371 2.538951,2.99442 2.798474,3.45633 4.767291,4.53266 10.34502,5.65542 4.884948,0.9833 6.229607,1.58555 7.980005,3.57412 0.83446,0.94798 2.47266,3.99164 2.34299,4.3531 -0.0395,0.11011 -0.5581,-0.0835 -1.15245,-0.43029 -2.64016,-1.54043 -4.809274,-2.16908 -10.511505,-3.04636 -5.593348,-0.86055 -8.859093,-2.60268 -12.281369,-6.5516 -3.187628,-3.67816 -3.620334,-4.13552 -4.643752,-4.90819 -0.733241,-0.5536 -1.254538,-0.80151 -1.661181,-0.78993 -0.925091,0.0263 -3.899612,1.25877 -4.525245,1.87501 l -0.563898,0.55543 v 4.92456 4.92456 l 0.638544,0.58152 c 0.650378,0.59227 4.117538,2.17092 10.462393,4.76366 10.215315,4.17436 19.550494,7.13313 29.420953,9.32491 3.41217,0.7577 3.91947,0.76441 4.47711,0.0593 z"
     id="path748" /><path
     style="fill:#f5a200;stroke-width:0.196476;fill-opacity:1"
     d="m 36.547788,50.456733 c 0.05201,-0.08418 0.37314,-0.857872 0.7135,-1.719175 1.541808,-3.901622 3.867072,-7.32611 7.000066,-10.309219 2.940223,-2.799564 5.210625,-4.38185 8.684007,-6.052045 1.225301,-0.589195 2.272103,-1.186667 2.326227,-1.327709 0.126558,-0.329674 -2.613597,-8.709787 -4.188511,-12.809794 -1.196844,-3.115765 -1.977846,-3.940035 -4.881166,-5.15163 -3.11457,-1.299763 -6.31525,-2.597215 -7.76083,-3.1459767 C 37.630615,9.6335056 36.039387,9.0209255 34.905016,8.5798727 33.77063,8.1388188 32.651209,7.7779516 32.417396,7.7779516 c -0.564295,0 -1.44242,1.0689955 -1.44242,1.7559515 0,0.5630479 0.19861,0.9012249 1.911194,3.2542089 2.018619,2.773445 3.131988,5.637482 3.589254,9.232987 0.331332,2.605335 0.03685,5.608384 -1.107869,11.298838 -0.487213,2.421903 -0.533882,3.045211 -0.536887,7.171408 -0.0029,3.795658 0.06562,4.90608 0.427618,6.937595 0.237016,1.330261 0.522728,2.590169 0.634916,2.799805 0.211689,0.395533 0.490924,0.492795 0.654586,0.227988 z"
     id="path816" /><path
     id="path798"
     style="fill:#cc0004;stroke-width:0.196476;fill-opacity:1"
     d="m 17.726562,11.548828 c -0.264912,0.002 -0.530619,0.01304 -0.796874,0.0293 -2.258708,0.137896 -3.309381,0.422707 -5.169922,1.400391 -2.3334814,1.22622 -4.1132007,3.303977 -4.9707035,5.802734 -0.6553791,1.909803 -0.6154031,4.97091 0.097656,7.367188 0.6702173,2.252543 2.7512036,6.544815 4.7636725,9.824218 3.923373,6.39329 10.613764,14.820219 16.037109,20.199219 3.522103,3.493306 4.578707,4.112451 5.091797,2.986328 0.184239,-0.40436 0.07665,-1.118276 -0.607422,-4.078125 -2.382632,-10.309494 -2.671501,-15.459719 -1.322266,-23.529297 0.869834,-5.202373 1.004408,-6.835048 0.716797,-8.732422 -0.450251,-2.970308 -1.404366,-4.955417 -3.326172,-6.925781 -2.745669,-2.81501 -6.539985,-4.374396 -10.513672,-4.34375 z m 1.244141,6.4375 c 0.976511,-0.01217 1.954638,0.201912 2.669922,0.621094 3.916748,2.295362 3.378707,7.945321 -0.898437,9.423828 -1.169738,0.404336 -1.998111,0.42097 -3.205079,0.0625 -2.776889,-0.824648 -4.323407,-3.686637 -3.507812,-6.492188 0.41758,-1.436441 1.805154,-2.867751 3.244141,-3.345703 0.526542,-0.174888 1.111359,-0.262229 1.697265,-0.269531 z" /><path
     id="path3772"
     style="display:inline;fill:#cc0004;fill-opacity:1;stroke-width:1.2773"
     d="m 16.152344,48.048828 c -2.107664,7.173739 -2.732346,12.566712 -1.605469,19.994141 3.120421,24.552515 25.922216,44.633171 50.599609,44.857421 0.054,-0.15525 0.0777,-0.27299 0.148438,-0.46094 2.258654,-5.9984 1.696465,-13.965909 -1.410156,-20.003903 C 63.286946,91.27364 62.660511,90.194359 61.988281,89.107422 50.453789,87.099588 40.183978,77.789189 38.052734,66.070312 37.875847,65.302405 37.748494,64.532113 37.646484,63.759766 35.71951,63.736766 32.015346,63.472332 29.265625,61.275391 24.41146,57.397083 20.141642,53.356103 16.152344,48.048828 Z m 5.546875,18.941406 2.283203,0.617188 c 2.613007,0.707231 3.995016,1.388795 5.916016,2.919922 3.106909,2.476355 4.702488,5.613293 4.818359,9.472656 0.03412,1.136599 -0.113052,1.984742 -1.083985,6.255859 -1.071696,4.714913 -1.138434,4.939094 -1.445312,4.869141 -0.176892,-0.04032 -0.589693,-0.44802 -0.916016,-0.904297 l -0.591796,-0.830078 0.873046,-3.941406 c 1.003924,-4.531888 1.015168,-5.281163 0.111328,-7.666016 -0.825524,-2.17822 -2.611744,-4.340472 -3.978515,-4.818359 -0.888905,-0.310803 -1.29427,-0.138471 -1.46875,0.626953 -0.112664,0.494241 0.05933,0.868962 1.308594,2.853515 1.407621,2.23613 1.972662,3.532689 2.035156,4.664063 0.03496,0.632928 0.03378,0.633684 -1.148438,0.304687 -2.365467,-0.65827 -4.841401,-3.293473 -5.99414,-6.378906 -0.759523,-2.032937 -1.097602,-4.841645 -0.841797,-7.009765 z m 21.214843,23.132813 c 0.193175,-0.0028 0.405804,-9.72e-4 0.628907,0.0059 1.338616,0.04099 3.04834,0.235036 3.132812,0.400391 0.03753,0.07323 -0.0056,0.565062 -0.0957,1.09375 l -0.164062,0.960937 -0.875,-0.06055 c -2.01897,-0.139003 -2.754288,0.04104 -6.166016,1.5 l -3.279297,1.40039 -0.759765,-0.490234 c -0.866248,-0.557916 -1.14279,-0.911925 -1.052735,-1.351563 0.103155,-0.503587 6.730816,-3.307761 8.119141,-3.435547 0.144824,-0.01333 0.318544,-0.02067 0.511718,-0.02344 z m 7.898438,1.667969 c 0.318497,0.0033 0.756425,0.16788 1.380859,0.49414 1.88026,0.982425 4.035724,2.790869 5.892579,4.945313 1.694322,1.965875 4.595245,6.770731 4.523437,7.492191 -0.01412,0.14184 -0.645179,0.2159 -1.693359,0.19726 -5.127999,-0.0914 -9.076707,-1.59353 -12.13086,-4.61523 -1.226006,-1.212989 -2.864934,-3.399151 -3.158203,-4.212893 -0.224051,-0.621679 0.0273,-0.678979 1.769531,-0.400391 1.624116,0.259704 4.475749,1.591459 6.097657,2.847656 0.604543,0.468246 1.307944,0.936434 1.564453,1.041016 0.60806,0.247911 1.009251,-0.06746 0.96875,-0.763672 -0.02751,-0.473127 -0.12822,-0.664668 -0.673828,-1.28125 -0.985666,-1.113874 -2.633952,-2.406024 -4.1875,-3.285156 -1.553057,-0.878843 -1.546934,-0.865387 -1.021485,-1.986328 0.149136,-0.318147 0.349472,-0.475997 0.667969,-0.472656 z" /></g>
</svg>
